# xmcd CD database file
#
# Track frame offsets:
#	150
#	21397
#	40897
#	72337
#	91530
#
# Disc length: 1471 seconds
#
# Revision: 2
# Processed by: cddbd v1.4PL0 Copyright (c) Steve Scherf et al.
# Submitted via: CDex 1.51
#
DISCID=3705bd05
DTITLE=Mariah Carey - Someday [CD Single)
DYEAR=1900
DGENRE=Pop
TTITLE0=Someday (New 7" Jackswing)
TTITLE1=Someday (New 7" Straight)
TTITLE2=Someday (New 12" Jackswing)
TTITLE3=Someday (Pianoaperacapella)
TTITLE4=Alone In Love
EXTD=
EXTT0=
EXTT1=
EXTT2=
EXTT3=
EXTT4=
PLAYORDER=
